<?xml version="1.0" encoding="UTF-8"?>
<svg width="171px" height="43px" viewBox="0 0 171 43" version="1.1" xmlns="http://www.w3.org/2000/svg" xmlns:xlink="http://www.w3.org/1999/xlink">
    <!-- Generator: Sketch 48.1 (47250) - http://www.bohemiancoding.com/sketch -->
    <title>the-example-app-logo-php</title>
    <desc>Created with Sketch.</desc>
    <defs></defs>
    <g id="Page-1" stroke="none" stroke-width="1" fill="none" fill-rule="evenodd">
        <g id="the-example-app-logo-php" transform="translate(0.000000, -4.000000)">
            <g id="Group" transform="translate(0.000000, 6.000000)" fill-rule="nonzero">
                <polygon id="Shape" fill="#D9453F" points="3.75 37 3.75 29.9 28 29.9 28 37"></polygon>
                <circle id="Oval" fill="#F5A623" cx="9.3" cy="14.3" r="9.3"></circle>
                <polygon id="Shape" fill="#3C80CF" points="35 27.6 19 0.4 35 0.4"></polygon>
            </g>
            <g id="Group" transform="translate(45.000000, 0.000000)">
                <g transform="translate(0.000000, 22.000000)" fill="#000000" id="example-app">
                    <path d="M8.14,13.88 C8.14,13.3599974 7.9766683,12.9133352 7.65,12.54 C7.3233317,12.1666648 6.8333366,11.98 6.18,11.98 C5.8599984,11.98 5.566668,12.0299995 5.3,12.13 C5.033332,12.2300005 4.800001,12.3666658 4.6,12.54 C4.399999,12.7133342 4.2400006,12.9166655 4.12,13.15 C3.9999994,13.3833345 3.9333334,13.6266654 3.92,13.88 L8.14,13.88 Z M11.16,15.14 L11.16,15.54 C11.16,15.673334 11.1533334,15.7999994 11.14,15.92 L3.92,15.92 C3.9466668,16.2000014 4.0299993,16.4533322 4.17,16.68 C4.3100007,16.9066678 4.4899989,17.1033325 4.71,17.27 C4.9300011,17.4366675 5.1766653,17.5666662 5.45,17.66 C5.7233347,17.7533338 6.0066652,17.8 6.3,17.8 C6.8200026,17.8 7.2599982,17.7033343 7.62,17.51 C7.9800018,17.3166657 8.2733322,17.0666682 8.5,16.76 L10.78,18.2 C10.313331,18.8800034 9.6966705,19.4033315 8.93,19.77 C8.1633295,20.1366685 7.2733384,20.32 6.26,20.32 C5.5133296,20.32 4.80667,20.2033345 4.14,19.97 C3.47333,19.7366655 2.8900025,19.3966689 2.39,18.95 C1.8899975,18.5033311 1.4966681,17.9533366 1.21,17.3 C0.9233319,16.6466634 0.78,15.9000042 0.78,15.06 C0.78,14.2466626 0.9199986,13.5100033 1.2,12.85 C1.4800014,12.1899967 1.8599976,11.6300023 2.34,11.17 C2.8200024,10.7099977 3.3866634,10.3533346 4.04,10.1 C4.6933366,9.8466654 5.3999962,9.72 6.16,9.72 C6.893337,9.72 7.5666636,9.8433321 8.18,10.09 C8.7933364,10.3366679 9.3199978,10.693331 9.76,11.16 C10.2000022,11.626669 10.5433321,12.19333 10.79,12.86 C11.0366679,13.52667 11.16,14.2866624 11.16,15.14 Z M19.56,20 L17.42,16.94 L15.22,20 L11.42,20 L15.4,14.78 L11.8,10.04 L15.62,10.04 L17.48,12.7 L19.36,10.04 L23.06,10.04 L19.48,14.78 L23.42,20 L19.56,20 Z M30.52,15.66 L30.1,15.66 C29.7399982,15.66 29.3766685,15.6766665 29.01,15.71 C28.6433315,15.7433335 28.3166681,15.8066662 28.03,15.9 C27.7433319,15.9933338 27.5066676,16.1299991 27.32,16.31 C27.1333324,16.4900009 27.04,16.7266652 27.04,17.02 C27.04,17.2066676 27.0833329,17.366666 27.17,17.5 C27.2566671,17.633334 27.366666,17.7399996 27.5,17.82 C27.633334,17.9000004 27.7866658,17.9566665 27.96,17.99 C28.1333342,18.0233335 28.2999992,18.04 28.46,18.04 C29.12667,18.04 29.6366649,17.8566685 29.99,17.49 C30.3433351,17.1233315 30.52,16.6266698 30.52,16 L30.52,15.66 Z M24.5,11.4 C25.0866696,10.8399972 25.7699961,10.4200014 26.55,10.14 C27.3300039,9.8599986 28.1266626,9.72 28.94,9.72 C29.7800042,9.72 30.4899971,9.8233323 31.07,10.03 C31.6500029,10.2366677 32.1199982,10.5566645 32.48,10.99 C32.8400018,11.4233355 33.1033325,11.9699967 33.27,12.63 C33.4366675,13.2900033 33.52,14.0733288 33.52,14.98 L33.52,20 L30.52,20 L30.52,18.94 L30.46,18.94 C30.2066654,19.3533354 29.8233359,19.6733322 29.31,19.9 C28.7966641,20.1266678 28.240003,20.24 27.64,20.24 C27.239998,20.24 26.8266688,20.1866672 26.4,20.08 C25.9733312,19.9733328 25.5833351,19.8000012 25.23,19.56 C24.8766649,19.3199988 24.5866678,19.000002 24.36,18.6 C24.1333322,18.199998 24.02,17.7066696 24.02,17.12 C24.02,16.3999964 24.2166647,15.8200022 24.61,15.38 C25.0033353,14.9399978 25.5099969,14.6000012 26.13,14.36 C26.7500031,14.1199988 27.4399962,13.9600004 28.2,13.88 C28.9600038,13.7999996 29.6999964,13.76 30.42,13.76 L30.42,13.6 C30.42,13.1066642 30.2466684,12.7433345 29.9,12.51 C29.5533316,12.2766655 29.1266692,12.16 28.62,12.16 C28.153331,12.16 27.7033355,12.259999 27.27,12.46 C26.8366645,12.660001 26.4666682,12.8999986 26.16,13.18 L24.5,11.4 Z M48.68,20 L48.68,14.56 C48.68,14.2799986 48.6600002,14.0100013 48.62,13.75 C48.5799998,13.4899987 48.5066672,13.2666676 48.4,13.08 C48.2933328,12.8933324 48.1500009,12.7433339 47.97,12.63 C47.7899991,12.5166661 47.5533348,12.46 47.26,12.46 C46.9799986,12.46 46.7366677,12.5199994 46.53,12.64 C46.3233323,12.7600006 46.1500007,12.919999 46.01,13.12 C45.8699993,13.320001 45.766667,13.5499987 45.7,13.81 C45.633333,14.0700013 45.6,14.3399986 45.6,14.62 L45.6,20 L42.32,20 L42.32,14.32 C42.32,13.7466638 42.2066678,13.293335 41.98,12.96 C41.7533322,12.626665 41.3933358,12.46 40.9,12.46 C40.3799974,12.46 39.9766681,12.6666646 39.69,13.08 C39.4033319,13.4933354 39.26,13.999997 39.26,14.6 L39.26,20 L35.96,20 L35.96,10.04 L39.14,10.04 L39.14,11.42 L39.18,11.42 C39.3000006,11.2066656 39.4499991,11.000001 39.63,10.8 C39.8100009,10.599999 40.0266654,10.4233341 40.28,10.27 C40.5333346,10.1166659 40.8166651,9.9933338 41.13,9.9 C41.4433349,9.8066662 41.7866648,9.76 42.16,9.76 C42.8800036,9.76 43.4899975,9.9066652 43.99,10.2 C44.4900025,10.4933348 44.8799986,10.9133306 45.16,11.46 C45.493335,10.9399974 45.9199974,10.5266682 46.44,10.22 C46.9600026,9.9133318 47.5933296,9.76 48.34,9.76 C49.0200034,9.76 49.5899977,9.8833321 50.05,10.13 C50.5100023,10.3766679 50.8799986,10.6966647 51.16,11.09 C51.4400014,11.4833353 51.6433327,11.9233309 51.77,12.41 C51.8966673,12.8966691 51.96,13.373331 51.96,13.84 L51.96,20 L48.68,20 Z M65.52,14.98 C65.52,15.6733368 65.4133344,16.3399968 65.2,16.98 C64.9866656,17.6200032 64.6766687,18.1833309 64.27,18.67 C63.8633313,19.1566691 63.3666696,19.5466652 62.78,19.84 C62.1933304,20.1333348 61.5266704,20.28 60.78,20.28 C60.1666636,20.28 59.5866694,20.1566679 59.04,19.91 C58.4933306,19.6633321 58.0666682,19.3266688 57.76,18.9 L57.72,18.9 L57.72,24.8 L54.44,24.8 L54.44,10.04 L57.56,10.04 L57.56,11.26 L57.62,11.26 C57.9266682,10.859998 58.3499973,10.5100015 58.89,10.21 C59.4300027,9.9099985 60.066663,9.76 60.8,9.76 C61.5200036,9.76 62.1733304,9.8999986 62.76,10.18 C63.3466696,10.4600014 63.8433313,10.8399976 64.25,11.32 C64.6566687,11.8000024 64.9699989,12.3566635 65.19,12.99 C65.4100011,13.6233365 65.52,14.2866632 65.52,14.98 Z M62.34,14.98 C62.34,14.6599984 62.2900005,14.3466682 62.19,14.04 C62.0899995,13.7333318 61.9433343,13.4633345 61.75,13.23 C61.5566657,12.9966655 61.3133348,12.8066674 61.02,12.66 C60.7266652,12.5133326 60.3866686,12.44 60,12.44 C59.6266648,12.44 59.2933348,12.5133326 59,12.66 C58.7066652,12.8066674 58.4566677,12.9999988 58.25,13.24 C58.0433323,13.4800012 57.8833339,13.7533318 57.77,14.06 C57.6566661,14.3666682 57.6,14.6799984 57.6,15 C57.6,15.3200016 57.6566661,15.6333318 57.77,15.94 C57.8833339,16.2466682 58.0433323,16.5199988 58.25,16.76 C58.4566677,17.0000012 58.7066652,17.1933326 59,17.34 C59.2933348,17.4866674 59.6266648,17.56 60,17.56 C60.3866686,17.56 60.7266652,17.4866674 61.02,17.34 C61.3133348,17.1933326 61.5566657,17.0000012 61.75,16.76 C61.9433343,16.5199988 62.0899995,16.2433349 62.19,15.93 C62.2900005,15.6166651 62.34,15.3000016 62.34,14.98 Z M67.62,20 L67.62,4.88 L70.94,4.88 L70.94,20 L67.62,20 Z M80.4,13.88 C80.4,13.3599974 80.2366683,12.9133352 79.91,12.54 C79.5833317,12.1666648 79.0933366,11.98 78.44,11.98 C78.1199984,11.98 77.826668,12.0299995 77.56,12.13 C77.293332,12.2300005 77.060001,12.3666658 76.86,12.54 C76.659999,12.7133342 76.5000006,12.9166655 76.38,13.15 C76.2599994,13.3833345 76.1933334,13.6266654 76.18,13.88 L80.4,13.88 Z M83.42,15.14 L83.42,15.54 C83.42,15.673334 83.4133334,15.7999994 83.4,15.92 L76.18,15.92 C76.2066668,16.2000014 76.2899993,16.4533322 76.43,16.68 C76.5700007,16.9066678 76.7499989,17.1033325 76.97,17.27 C77.1900011,17.4366675 77.4366653,17.5666662 77.71,17.66 C77.9833347,17.7533338 78.2666652,17.8 78.56,17.8 C79.0800026,17.8 79.5199982,17.7033343 79.88,17.51 C80.2400018,17.3166657 80.5333322,17.0666682 80.76,16.76 L83.04,18.2 C82.573331,18.8800034 81.9566705,19.4033315 81.19,19.77 C80.4233295,20.1366685 79.5333384,20.32 78.52,20.32 C77.7733296,20.32 77.06667,20.2033345 76.4,19.97 C75.73333,19.7366655 75.1500025,19.3966689 74.65,18.95 C74.1499975,18.5033311 73.7566681,17.9533366 73.47,17.3 C73.1833319,16.6466634 73.04,15.9000042 73.04,15.06 C73.04,14.2466626 73.1799986,13.5100033 73.46,12.85 C73.7400014,12.1899967 74.1199976,11.6300023 74.6,11.17 C75.0800024,10.7099977 75.6466634,10.3533346 76.3,10.1 C76.9533366,9.8466654 77.6599962,9.72 78.42,9.72 C79.153337,9.72 79.8266636,9.8433321 80.44,10.09 C81.0533364,10.3366679 81.5799978,10.693331 82.02,11.16 C82.4600022,11.626669 82.8033321,12.19333 83.05,12.86 C83.2966679,13.52667 83.42,14.2866624 83.42,15.14 Z M96.34,15.66 L95.92,15.66 C95.5599982,15.66 95.1966685,15.6766665 94.83,15.71 C94.4633315,15.7433335 94.1366681,15.8066662 93.85,15.9 C93.5633319,15.9933338 93.3266676,16.1299991 93.14,16.31 C92.9533324,16.4900009 92.86,16.7266652 92.86,17.02 C92.86,17.2066676 92.9033329,17.366666 92.99,17.5 C93.0766671,17.633334 93.186666,17.7399996 93.32,17.82 C93.453334,17.9000004 93.6066658,17.9566665 93.78,17.99 C93.9533342,18.0233335 94.1199992,18.04 94.28,18.04 C94.94667,18.04 95.4566649,17.8566685 95.81,17.49 C96.1633351,17.1233315 96.34,16.6266698 96.34,16 L96.34,15.66 Z M90.32,11.4 C90.9066696,10.8399972 91.5899961,10.4200014 92.37,10.14 C93.1500039,9.8599986 93.9466626,9.72 94.76,9.72 C95.6000042,9.72 96.3099971,9.8233323 96.89,10.03 C97.4700029,10.2366677 97.9399982,10.5566645 98.3,10.99 C98.6600018,11.4233355 98.9233325,11.9699967 99.09,12.63 C99.2566675,13.2900033 99.34,14.0733288 99.34,14.98 L99.34,20 L96.34,20 L96.34,18.94 L96.28,18.94 C96.0266654,19.3533354 95.6433359,19.6733322 95.13,19.9 C94.6166641,20.1266678 94.060003,20.24 93.46,20.24 C93.059998,20.24 92.6466688,20.1866672 92.22,20.08 C91.7933312,19.9733328 91.4033351,19.8000012 91.05,19.56 C90.6966649,19.3199988 90.4066678,19.000002 90.18,18.6 C89.9533322,18.199998 89.84,17.7066696 89.84,17.12 C89.84,16.3999964 90.0366647,15.8200022 90.43,15.38 C90.8233353,14.9399978 91.3299969,14.6000012 91.95,14.36 C92.5700031,14.1199988 93.2599962,13.9600004 94.02,13.88 C94.7800038,13.7999996 95.5199964,13.76 96.24,13.76 L96.24,13.6 C96.24,13.1066642 96.0666684,12.7433345 95.72,12.51 C95.3733316,12.2766655 94.9466692,12.16 94.44,12.16 C93.973331,12.16 93.5233355,12.259999 93.09,12.46 C92.6566645,12.660001 92.2866682,12.8999986 91.98,13.18 L90.32,11.4 Z M112.86,14.98 C112.86,15.6733368 112.753334,16.3399968 112.54,16.98 C112.326666,17.6200032 112.016669,18.1833309 111.61,18.67 C111.203331,19.1566691 110.70667,19.5466652 110.12,19.84 C109.53333,20.1333348 108.86667,20.28 108.12,20.28 C107.506664,20.28 106.926669,20.1566679 106.38,19.91 C105.833331,19.6633321 105.406668,19.3266688 105.1,18.9 L105.06,18.9 L105.06,24.8 L101.78,24.8 L101.78,10.04 L104.9,10.04 L104.9,11.26 L104.96,11.26 C105.266668,10.859998 105.689997,10.5100015 106.23,10.21 C106.770003,9.9099985 107.406663,9.76 108.14,9.76 C108.860004,9.76 109.51333,9.8999986 110.1,10.18 C110.68667,10.4600014 111.183331,10.8399976 111.59,11.32 C111.996669,11.8000024 112.309999,12.3566635 112.53,12.99 C112.750001,13.6233365 112.86,14.2866632 112.86,14.98 Z M109.68,14.98 C109.68,14.6599984 109.63,14.3466682 109.53,14.04 C109.429999,13.7333318 109.283334,13.4633345 109.09,13.23 C108.896666,12.9966655 108.653335,12.8066674 108.36,12.66 C108.066665,12.5133326 107.726669,12.44 107.34,12.44 C106.966665,12.44 106.633335,12.5133326 106.34,12.66 C106.046665,12.8066674 105.796668,12.9999988 105.59,13.24 C105.383332,13.4800012 105.223334,13.7533318 105.11,14.06 C104.996666,14.3666682 104.94,14.6799984 104.94,15 C104.94,15.3200016 104.996666,15.6333318 105.11,15.94 C105.223334,16.2466682 105.383332,16.5199988 105.59,16.76 C105.796668,17.0000012 106.046665,17.1933326 106.34,17.34 C106.633335,17.4866674 106.966665,17.56 107.34,17.56 C107.726669,17.56 108.066665,17.4866674 108.36,17.34 C108.653335,17.1933326 108.896666,17.0000012 109.09,16.76 C109.283334,16.5199988 109.429999,16.2433349 109.53,15.93 C109.63,15.6166651 109.68,15.3000016 109.68,14.98 Z M126,14.98 C126,15.6733368 125.893334,16.3399968 125.68,16.98 C125.466666,17.6200032 125.156669,18.1833309 124.75,18.67 C124.343331,19.1566691 123.84667,19.5466652 123.26,19.84 C122.67333,20.1333348 122.00667,20.28 121.26,20.28 C120.646664,20.28 120.066669,20.1566679 119.52,19.91 C118.973331,19.6633321 118.546668,19.3266688 118.24,18.9 L118.2,18.9 L118.2,24.8 L114.92,24.8 L114.92,10.04 L118.04,10.04 L118.04,11.26 L118.1,11.26 C118.406668,10.859998 118.829997,10.5100015 119.37,10.21 C119.910003,9.9099985 120.546663,9.76 121.28,9.76 C122.000004,9.76 122.65333,9.8999986 123.24,10.18 C123.82667,10.4600014 124.323331,10.8399976 124.73,11.32 C125.136669,11.8000024 125.449999,12.3566635 125.67,12.99 C125.890001,13.6233365 126,14.2866632 126,14.98 Z M122.82,14.98 C122.82,14.6599984 122.77,14.3466682 122.67,14.04 C122.569999,13.7333318 122.423334,13.4633345 122.23,13.23 C122.036666,12.9966655 121.793335,12.8066674 121.5,12.66 C121.206665,12.5133326 120.866669,12.44 120.48,12.44 C120.106665,12.44 119.773335,12.5133326 119.48,12.66 C119.186665,12.8066674 118.936668,12.9999988 118.73,13.24 C118.523332,13.4800012 118.363334,13.7533318 118.25,14.06 C118.136666,14.3666682 118.08,14.6799984 118.08,15 C118.08,15.3200016 118.136666,15.6333318 118.25,15.94 C118.363334,16.2466682 118.523332,16.5199988 118.73,16.76 C118.936668,17.0000012 119.186665,17.1933326 119.48,17.34 C119.773335,17.4866674 120.106665,17.56 120.48,17.56 C120.866669,17.56 121.206665,17.4866674 121.5,17.34 C121.793335,17.1933326 122.036666,17.0000012 122.23,16.76 C122.423334,16.5199988 122.569999,16.2433349 122.67,15.93 C122.77,15.6166651 122.82,15.3000016 122.82,14.98 Z"></path>
                </g>
                <g fill="#8091A5" id="The-PHP">
                    <path d="M8.02,20 L2.4,20 L2.5,19.42 C2.8200016,19.2999994 3.1366651,19.2033337 3.45,19.13 C3.7633349,19.0566663 4.1066648,18.9933336 4.48,18.94 L7,7.04 L3.94,7.04 L2.28,9.9 L1.76,9.9 C1.7733334,9.633332 1.8033331,9.3300017 1.85,8.99 C1.8966669,8.6499983 1.9466664,8.3033351 2,7.95 C2.0533336,7.5966649 2.1099997,7.2500017 2.17,6.91 C2.2300003,6.5699983 2.293333,6.266668 2.36,6 L13.96,6 C13.9066664,6.266668 13.8400004,6.566665 13.76,6.9 C13.6799996,7.233335 13.5933338,7.5766649 13.5,7.93 C13.4066662,8.2833351 13.3100005,8.6299983 13.21,8.97 C13.1099995,9.3100017 13.0133338,9.6199986 12.92,9.9 L12.4,9.9 L11.98,7.04 L8.92,7.04 L6.4,18.94 C6.7200016,19.006667 7.0233319,19.073333 7.31,19.14 C7.5966681,19.206667 7.8666654,19.2999994 8.12,19.42 L8.02,20 Z M14.26,6.18 L14.26,5.72 C14.460001,5.6399996 14.6833321,5.5566671 14.93,5.47 C15.1766679,5.3833329 15.433332,5.3033337 15.7,5.23 C15.966668,5.1566663 16.2266654,5.0966669 16.48,5.05 C16.7333346,5.0033331 16.9733322,4.9733334 17.2,4.96 L17.62,5.14 L15.82,13.54 L15.92,13.54 C16.1733346,13.006664 16.4599984,12.5100023 16.78,12.05 C17.1000016,11.5899977 17.4366649,11.1900017 17.79,10.85 C18.1433351,10.5099983 18.5133314,10.2433343 18.9,10.05 C19.2866686,9.8566657 19.679998,9.76 20.08,9.76 C20.6933364,9.76 21.1366653,9.9366649 21.41,10.29 C21.6833347,10.6433351 21.82,11.0799974 21.82,11.6 C21.82,11.9600018 21.786667,12.3466646 21.72,12.76 C21.653333,13.1733354 21.5733338,13.5733314 21.48,13.96 L20.34,18.88 L21.82,18.88 L21.82,19.4 C21.553332,19.6133344 21.2333352,19.786666 20.86,19.92 C20.4866648,20.053334 20.1133352,20.12 19.74,20.12 C19.3533314,20.12 19.0866674,20.0400008 18.94,19.88 C18.7933326,19.7199992 18.72,19.5466676 18.72,19.36 C18.72,19.1199988 18.753333,18.8500015 18.82,18.55 C18.886667,18.2499985 18.953333,17.9466682 19.02,17.64 L19.74,14.3 C19.8333338,13.8866646 19.9166663,13.5000018 19.99,13.14 C20.0633337,12.7799982 20.1,12.433335 20.1,12.1 C20.1,11.7933318 20.033334,11.5333344 19.9,11.32 C19.766666,11.1066656 19.5866678,11 19.36,11 C18.9466646,11 18.5466686,11.1466652 18.16,11.44 C17.7733314,11.7333348 17.413335,12.0866646 17.08,12.5 C16.746665,12.9133354 16.4533346,13.3433311 16.2,13.79 C15.9466654,14.2366689 15.753334,14.6066652 15.62,14.9 L14.56,20 L12.88,20 L15.62,6.36 L14.26,6.18 Z M30.9,18.22 C30.7799994,18.4733346 30.6066678,18.7199988 30.38,18.96 C30.1533322,19.2000012 29.8866682,19.4166657 29.58,19.61 C29.2733318,19.8033343 28.9266686,19.9566661 28.54,20.07 C28.1533314,20.1833339 27.7400022,20.24 27.3,20.24 C26.1933278,20.24 25.3433363,19.9233365 24.75,19.29 C24.1566637,18.6566635 23.86,17.7800056 23.86,16.66 C23.86,15.7133286 23.993332,14.8200042 24.26,13.98 C24.526668,13.1399958 24.8999976,12.4066698 25.38,11.78 C25.8600024,11.1533302 26.4433299,10.6600018 27.13,10.3 C27.8166701,9.9399982 28.5799958,9.76 29.42,9.76 C30.0600032,9.76 30.6099977,9.9233317 31.07,10.25 C31.5300023,10.5766683 31.76,11.0599968 31.76,11.7 C31.76,12.6466714 31.2900047,13.3933306 30.35,13.94 C29.4099953,14.4866694 27.8933438,14.8399992 25.8,15 C25.7466664,15.2266678 25.7100001,15.4466656 25.69,15.66 C25.6699999,15.8733344 25.66,16.079999 25.66,16.28 C25.66,17.080004 25.8633313,17.7333308 26.27,18.24 C26.6766687,18.7466692 27.2733294,19 28.06,19 C28.3133346,19 28.5633321,18.9600004 28.81,18.88 C29.0566679,18.7999996 29.2899989,18.7000006 29.51,18.58 C29.7300011,18.4599994 29.9299991,18.333334 30.11,18.2 C30.2900009,18.066666 30.446666,17.9466672 30.58,17.84 L30.9,18.22 Z M28.8,10.62 C28.2266638,10.6333334 27.6933358,10.9033307 27.2,11.43 C26.7066642,11.9566693 26.2866684,12.8599936 25.94,14.14 C27.2333398,14.0999998 28.2399964,13.8766687 28.96,13.47 C29.6800036,13.0633313 30.04,12.5000036 30.04,11.78 C30.04,11.4999986 29.9566675,11.2400012 29.79,11 C29.6233325,10.7599988 29.2933358,10.6333334 28.8,10.62 Z M40.38,18.94 C40.7266684,18.9800002 41.0499985,19.0433329 41.35,19.13 C41.6500015,19.2166671 41.9266654,19.3133328 42.18,19.42 L42.08,20 L36.6,20 L36.7,19.42 C37.0066682,19.286666 37.3033319,19.186667 37.59,19.12 C37.8766681,19.053333 38.1666652,18.9933336 38.46,18.94 L40.96,7.08 C40.6666652,7.0266664 40.3933346,6.9566671 40.14,6.87 C39.8866654,6.7833329 39.6466678,6.6866672 39.42,6.58 L39.56,6 L41.36,6 C41.893336,6 42.4766635,5.9733336 43.11,5.92 C43.7433365,5.8666664 44.3466638,5.84 44.92,5.84 C45.5600032,5.84 46.1499973,5.9033327 46.69,6.03 C47.2300027,6.1566673 47.6899981,6.3566653 48.07,6.63 C48.4500019,6.9033347 48.7466656,7.2433313 48.96,7.65 C49.1733344,8.0566687 49.28,8.5399972 49.28,9.1 C49.28,9.8866706 49.1366681,10.61333 48.85,11.28 C48.5633319,11.94667 48.1500027,12.5266642 47.61,13.02 C47.0699973,13.5133358 46.4200038,13.8999986 45.66,14.18 C44.8999962,14.4600014 44.053338,14.6 43.12,14.6 L42.79,14.6 C42.6366659,14.6 42.4700009,14.5966667 42.29,14.59 C42.1099991,14.5833333 41.9300009,14.5733334 41.75,14.56 C41.5699991,14.5466666 41.4200006,14.5333334 41.3,14.52 L40.38,18.94 Z M44.4,6.88 C44.0799984,6.88 43.7966679,6.8899999 43.55,6.91 C43.3033321,6.9300001 43.0866676,6.9533332 42.9,6.98 L41.54,13.46 C41.606667,13.4733334 41.7033327,13.4866666 41.83,13.5 C41.9566673,13.5133334 42.0899993,13.5233333 42.23,13.53 C42.3700007,13.5366667 42.5033327,13.5433333 42.63,13.55 C42.7566673,13.5566667 42.8599996,13.56 42.94,13.56 C44.3266736,13.56 45.3733298,13.1633373 46.08,12.37 C46.7866702,11.5766627 47.14,10.4933402 47.14,9.12 C47.14,8.786665 47.1033337,8.4833347 47.03,8.21 C46.9566663,7.9366653 46.8166677,7.700001 46.61,7.5 C46.4033323,7.299999 46.1233351,7.1466672 45.77,7.04 C45.4166649,6.9333328 44.9600028,6.88 44.4,6.88 Z M53.36,20 L48.3,20 L48.4,19.42 C48.6933348,19.286666 48.9866652,19.1833337 49.28,19.11 C49.5733348,19.0366663 49.8666652,18.9800002 50.16,18.94 L52.66,7.08 C52.059997,6.9599994 51.5466688,6.7933344 51.12,6.58 L51.26,6 L56.32,6 L56.2,6.58 C55.9733322,6.7000006 55.7133348,6.7999996 55.42,6.88 C55.1266652,6.9600004 54.846668,7.0266664 54.58,7.08 L53.48,12.3 L59.76,12.3 L60.88,7.08 C60.613332,7.013333 60.3633345,6.9433337 60.13,6.87 C59.8966655,6.7966663 59.6733344,6.7000006 59.46,6.58 L59.6,6 L64.66,6 L64.54,6.58 C64.273332,6.713334 63.9900015,6.8166663 63.69,6.89 C63.3899985,6.9633337 63.0933348,7.0266664 62.8,7.08 L60.28,18.94 C60.880003,19.0466672 61.3866646,19.2066656 61.8,19.42 L61.7,20 L56.64,20 L56.74,19.42 C56.9933346,19.3133328 57.2566653,19.2200004 57.53,19.14 C57.8033347,19.0599996 58.0799986,18.9933336 58.36,18.94 L59.54,13.34 L53.24,13.34 L52.08,18.94 C52.3200012,18.9933336 52.5599988,19.0599996 52.8,19.14 C53.0400012,19.2200004 53.259999,19.3133328 53.46,19.42 L53.36,20 Z M66.46,18.94 C66.8066684,18.9800002 67.1299985,19.0433329 67.43,19.13 C67.7300015,19.2166671 68.0066654,19.3133328 68.26,19.42 L68.16,20 L62.68,20 L62.78,19.42 C63.0866682,19.286666 63.3833319,19.186667 63.67,19.12 C63.9566681,19.053333 64.2466652,18.9933336 64.54,18.94 L67.04,7.08 C66.7466652,7.0266664 66.4733346,6.9566671 66.22,6.87 C65.9666654,6.7833329 65.7266678,6.6866672 65.5,6.58 L65.64,6 L67.44,6 C67.973336,6 68.5566635,5.9733336 69.19,5.92 C69.8233365,5.8666664 70.4266638,5.84 71,5.84 C71.6400032,5.84 72.2299973,5.9033327 72.77,6.03 C73.3100027,6.1566673 73.7699981,6.3566653 74.15,6.63 C74.5300019,6.9033347 74.8266656,7.2433313 75.04,7.65 C75.2533344,8.0566687 75.36,8.5399972 75.36,9.1 C75.36,9.8866706 75.2166681,10.61333 74.93,11.28 C74.6433319,11.94667 74.2300027,12.5266642 73.69,13.02 C73.1499973,13.5133358 72.5000038,13.8999986 71.74,14.18 C70.9799962,14.4600014 70.133338,14.6 69.2,14.6 L68.87,14.6 C68.7166659,14.6 68.5500009,14.5966667 68.37,14.59 C68.1899991,14.5833333 68.0100009,14.5733334 67.83,14.56 C67.6499991,14.5466666 67.5000006,14.5333334 67.38,14.52 L66.46,18.94 Z M70.48,6.88 C70.1599984,6.88 69.8766679,6.8899999 69.63,6.91 C69.3833321,6.9300001 69.1666676,6.9533332 68.98,6.98 L67.62,13.46 C67.686667,13.4733334 67.7833327,13.4866666 67.91,13.5 C68.0366673,13.5133334 68.1699993,13.5233333 68.31,13.53 C68.4500007,13.5366667 68.5833327,13.5433333 68.71,13.55 C68.8366673,13.5566667 68.9399996,13.56 69.02,13.56 C70.4066736,13.56 71.4533298,13.1633373 72.16,12.37 C72.8666702,11.5766627 73.22,10.4933402 73.22,9.12 C73.22,8.786665 73.1833337,8.4833347 73.11,8.21 C73.0366663,7.9366653 72.8966677,7.700001 72.69,7.5 C72.4833323,7.299999 72.2033351,7.1466672 71.85,7.04 C71.4966649,6.9333328 71.0400028,6.88 70.48,6.88 Z"></path>
                </g>
            </g>
        </g>
    </g>
</svg>